<svg xmlns="http://www.w3.org/2000/svg" viewBox="0 0 28 28"><defs><style>.cls-1{fill:#f0dd00;stroke:#ff0;stroke-miterlimit:10;stroke-width:3px;}.cls-2{fill:#333;}</style></defs><title>Ресурс 5</title><g id="Слой_2" data-name="Слой 2"><g id="Слой_2-2" data-name="Слой 2"><circle class="cls-1" cx="14" cy="14" r="12.5"/><path class="cls-2" d="M16,17.7c-.14-1.15.25-1.26-1-1.7l-2-1c-2.13-1.33-3.86-1.69-4.16-4.11-.32-2.62,1.42-4.45,4.43-4.82a7.16,7.16,0,0,1,3.23.35,1.17,1.17,0,0,1,.72,1l.09,1.32a1.07,1.07,0,0,1-.89,1.17h0a1.06,1.06,0,0,1-1.12-.81l-.63-2.32,1.68.43.13,1.09a4.44,4.44,0,0,0-3-.94c-1.13.13-1.28,1.15-1.8,2.23-.68,1.4.84,1.68,2.09,2.12l1,.35C17.45,13,18,14,18.91,16.31c.62,1.57-1.26,4.62-4.66,5A8.91,8.91,0,0,1,10.47,21a1.17,1.17,0,0,1-.74-1l-.12-1.47a1.07,1.07,0,0,1,.88-1.19h0a1,1,0,0,1,1.11.81l.7,2.56-1.6-.35-.13-1.05a6.12,6.12,0,0,0,3.5.73A2,2,0,0,0,16,17.7Z"/></g></g></svg>