<svg xmlns="http://www.w3.org/2000/svg" width="1056" height="338" viewBox="0 0 1056 338">
  <defs>
    <style>
      .cls-1 {
        fill: #333;
      }

      .cls-1, .cls-2 {
        stroke: #ff0;
        stroke-linejoin: round;
        stroke-width: 3px;
      }

      .cls-1, .cls-2, .cls-3 {
        fill-rule: evenodd;
      }

      .cls-2 {
        fill: #f93;
        fill-opacity: 0;
      }

      .cls-3 {
        fill: #ff0;
      }
    </style>
  </defs>
  <g id="Монтажная_область_1_копия_6" data-name="Монтажная область 1 копия 6">
    <path id="selections" class="cls-1" d="M160.665,4116.42q0-20.94-4.1-29.26t-16.715-12.75q-12.618-4.44-30.535-2.57-16.387,1.71-27.967,8.18t-16.77,16.35q-5.19,9.885-5.189,30.07,0,14.01,3.66,22.64t9.232,13.15q5.572,4.515,22.724,14.02,17.15,9.39,21.522,13.72,4.262,4.335,4.261,19.85,0,7.065-2.24,10.88a8.5,8.5,0,0,1-6.828,4.29q-4.588.48-6.391-2.16-1.8-2.625-1.8-12.51v-21.39l-42.716,4.46v11.51q0,19.755,4.042,30.08t17.1,15.91q13.053,5.595,31.518,3.66,16.823-1.74,29.5-9.1t17.1-16.71q4.424-9.36,4.424-28.14,0-25.845-7.975-36.63t-38.686-25.69q-10.71-5.175-13-9.39-2.4-4.2-2.395-13.01,0-6.84,2.131-10.43a7.9,7.9,0,0,1,6.281-4.02q3.824-.405,5.463,1.92t1.639,11.45v13.03l42.715-4.46v-6.95Zm18.245,127.62,79.751-8.32v-35.18l-33.758,3.53v-38.65l28.733-3v-33.44l-28.733,3v-33.33l30.7-3.2v-35.18l-76.692,8v175.77Zm92.97-185.47v175.77l73.961-7.71v-35.18l-27.968,2.92V4053.78Zm85.1,166.89,79.751-8.32v-35.17l-33.758,3.52v-38.65l28.733-2.99v-33.44l-28.733,2.99v-33.33l30.7-3.2V4041.7l-76.692,8v175.76Zm200.361-136.82q0-24.615-4.152-35.83t-17.37-17.65q-13.22-6.435-33.539-4.31a70.419,70.419,0,0,0-26.493,7.81,50.626,50.626,0,0,0-18.026,15.72,44.364,44.364,0,0,0-7.811,19.11q-1.311,9.645-1.311,28.64v51.35q0,25.83,4.261,38.26t17.37,18.32q13.11,5.91,33.321,3.8,19.444-2.025,32.72-12t17.152-21.79q3.876-11.82,3.878-39.11v-6.85l-45.994,4.79V4161q0,14.475-1.584,18.55-1.584,4.095-6.718,4.62-5.355.555-6.883-3.19t-1.529-16.56v-81.64q0-13.35,1.529-17.53t7.21-4.77q5.024-.525,6.5,2.63t1.474,16.47v30.55l45.994-4.79v-16.7Zm8.63-60.74v35.17l27.2-2.83v140.59l45.994-4.8V4055.44l27.312-2.85v-35.18Zm111-11.58v175.77l45.994-4.8V4011.52Zm169.553,55.16q0-27.135-1.311-37.86a37.222,37.222,0,0,0-8.193-19.23,36.331,36.331,0,0,0-18.19-11.94q-11.307-3.435-25.51-1.96a70.1,70.1,0,0,0-26.219,7.62,49.2,49.2,0,0,0-17.862,15.87,46.361,46.361,0,0,0-7.866,20.96q-1.257,11.145-1.256,37.64v30.07q0,27.15,1.311,37.86a37.187,37.187,0,0,0,8.193,19.23,36.282,36.282,0,0,0,18.19,11.95q11.307,3.435,25.509,1.95a70.125,70.125,0,0,0,26.22-7.62,49.23,49.23,0,0,0,17.862-15.87,46.364,46.364,0,0,0,7.866-20.96q1.254-11.145,1.256-37.64v-30.07Zm-45.993,57.89q0,15.525-1.311,19.78a6.432,6.432,0,0,1-6.009,4.76c-3.059.32-5.008-.68-5.845-2.98s-1.256-8.55-1.256-18.76V4050.1q0-13.575,1.912-16.54a7.1,7.1,0,0,1,5.517-3.34c2.84-.3,4.715.65,5.626,2.83s1.366,7.37,1.366,15.54v80.78Zm127.383-139.22v79.14l-25.783-76.46-38.455,4.02v175.76l38.455-4.01v-79.9l23.926,77.4,40.312-4.2V3986.13Zm154.366,30.14q0-20.955-4.1-29.26t-16.71-12.75q-12.615-4.44-30.54-2.57-16.38,1.71-27.96,8.18T986.2,4000.24q-5.19,9.885-5.19,30.07,0,14.01,3.66,22.64t9.232,13.15q5.571,4.515,22.72,14.02,17.16,9.39,21.53,13.71,4.26,4.335,4.26,19.86,0,7.065-2.24,10.87a8.5,8.5,0,0,1-6.83,4.3q-4.59.48-6.39-2.16-1.8-2.625-1.81-12.51V4092.8l-42.711,4.46v11.51q0,19.755,4.042,30.08t17.1,15.91q13.05,5.595,31.52,3.66,16.815-1.755,29.49-9.1t17.1-16.71q4.425-9.36,4.42-28.15,0-25.83-7.97-36.62t-38.69-25.69q-10.71-5.175-12.99-9.39-2.4-4.2-2.4-13.01,0-6.84,2.13-10.43a7.883,7.883,0,0,1,6.28-4.02q3.825-.4,5.47,1.92t1.64,11.45v13.03l42.71-4.46v-6.95Z" transform="translate(-53 -3943)"/>
    <path id="selections-2" data-name="selections" class="cls-2" d="M168.641,4108.61q0-20.955-4.1-29.26-4.1-8.325-16.715-12.75t-30.534-2.57q-16.388,1.71-27.968,8.18t-16.77,16.35q-5.19,9.885-5.189,30.07,0,14.01,3.66,22.63,3.659,8.64,9.232,13.16t22.723,14.02q17.151,9.39,21.522,13.71,4.26,4.335,4.261,19.86,0,7.065-2.24,10.87a8.486,8.486,0,0,1-6.828,4.3q-4.588.48-6.391-2.16c-1.2-1.75-1.8-5.93-1.8-12.51v-21.39l-42.716,4.46v11.5q0,19.77,4.042,30.09t17.1,15.91q13.053,5.58,31.518,3.66,16.823-1.755,29.5-9.1t17.1-16.71q4.425-9.36,4.425-28.15,0-25.83-7.975-36.62T125.8,4130.47q-10.71-5.175-13-9.39-2.4-4.215-2.395-13.01,0-6.84,2.13-10.43a7.885,7.885,0,0,1,6.282-4.03q3.824-.39,5.463,1.93t1.638,11.45v13.02l42.716-4.45v-6.95Zm18.245,127.61,79.751-8.31v-35.18l-33.758,3.52V4157.6l28.732-2.99v-33.44l-28.732,3v-33.33l30.7-3.21v-35.17l-76.692,8v175.76Zm92.97-185.46v175.77l73.96-7.72v-35.17l-27.967,2.91V4045.96Zm85.1,166.89,79.751-8.32v-35.17l-33.758,3.52v-38.65l28.732-3v-33.44l-28.732,3v-33.33l30.7-3.2v-35.18l-76.692,8v175.77Zm200.361-136.82q0-24.615-4.152-35.83t-17.37-17.65q-13.221-6.435-33.539-4.31a70.232,70.232,0,0,0-26.493,7.81,50.617,50.617,0,0,0-18.026,15.72,44.364,44.364,0,0,0-7.811,19.11q-1.311,9.63-1.311,28.63v51.35q0,25.845,4.26,38.26t17.371,18.33q13.11,5.91,33.321,3.8,19.443-2.025,32.719-12t17.152-21.8q3.878-11.82,3.879-39.11v-6.85l-45.994,4.8v22.09q0,14.475-1.584,18.56t-6.719,4.62q-5.354.555-6.882-3.19t-1.53-16.56v-81.64q0-13.35,1.53-17.53t7.21-4.77q5.024-.525,6.5,2.63t1.475,16.47v30.55l45.994-4.8v-16.69Zm8.63-60.75v35.18l27.2-2.84v140.59l45.993-4.79v-140.6l27.312-2.84V4009.6Zm111-11.57v175.76l45.993-4.79V4003.71ZM854.5,4063.67q0-27.135-1.311-37.86A37.18,37.18,0,0,0,845,4006.58a36.34,36.34,0,0,0-18.189-11.95q-11.308-3.435-25.51-1.95a70.1,70.1,0,0,0-26.219,7.62,49.182,49.182,0,0,0-17.862,15.87,46.361,46.361,0,0,0-7.866,20.96q-1.257,11.145-1.257,37.64v30.07q0,27.135,1.311,37.86a37.188,37.188,0,0,0,8.194,19.23,36.342,36.342,0,0,0,18.19,11.95q11.307,3.42,25.509,1.95a70.131,70.131,0,0,0,26.22-7.62,49.23,49.23,0,0,0,17.862-15.87,46.387,46.387,0,0,0,7.866-20.96q1.254-11.145,1.256-37.64v-30.07Zm-45.994,57.88q0,15.525-1.31,19.79a6.423,6.423,0,0,1-6.009,4.75q-4.588.48-5.845-2.97t-1.256-18.76v-82.07q0-13.575,1.912-16.54a7.109,7.109,0,0,1,5.517-3.35c2.84-.29,4.714.65,5.626,2.84s1.365,7.36,1.365,15.54v80.77ZM935.89,3982.33v79.15l-25.783-76.46-38.455,4.01V4164.8l38.455-4.01v-79.91l23.925,77.41,40.313-4.2V3978.32Zm154.37,30.15q0-20.955-4.1-29.27t-16.71-12.75q-12.63-4.425-30.54-2.57-16.38,1.71-27.97,8.19t-16.767,16.35q-5.19,9.885-5.189,30.07,0,14.01,3.66,22.63,3.659,8.64,9.236,13.15,5.565,4.53,22.72,14.03,17.145,9.39,21.52,13.71,4.26,4.335,4.26,19.86,0,7.05-2.24,10.87a8.482,8.482,0,0,1-6.83,4.3q-4.59.48-6.39-2.16t-1.8-12.51v-21.39l-42.716,4.45v11.51q0,19.77,4.043,30.09t17.093,15.91q13.065,5.58,31.52,3.66,16.83-1.755,29.5-9.1t17.1-16.71q4.425-9.36,4.42-28.15,0-25.83-7.97-36.62t-38.69-25.7q-10.71-5.16-13-9.39-2.4-4.2-2.39-13,0-6.84,2.13-10.43a7.879,7.879,0,0,1,6.28-4.03q3.825-.39,5.46,1.93t1.64,11.44v13.03l42.72-4.45v-6.95Z" transform="translate(-53 -3943)"/>
    <path id="selections-3" data-name="selections" class="cls-3" d="M174.229,4104.44q0-20.955-4.1-29.26t-16.715-12.75q-12.618-4.44-30.535-2.57-16.388,1.71-27.967,8.18t-16.77,16.35q-5.19,9.885-5.189,30.07,0,14.01,3.66,22.64t9.231,13.15q5.572,4.515,22.724,14.02,17.15,9.39,21.522,13.71,4.26,4.335,4.26,19.86,0,7.065-2.239,10.87a8.486,8.486,0,0,1-6.828,4.3q-4.588.48-6.391-2.16t-1.8-12.51v-21.39l-42.716,4.46v11.5q0,19.77,4.042,30.09t17.1,15.91q13.054,5.6,31.518,3.66,16.822-1.755,29.5-9.1t17.1-16.71q4.425-9.36,4.424-28.15,0-25.83-7.975-36.62t-38.685-25.69q-10.711-5.175-13-9.39Q116,4112.7,116,4103.9q0-6.84,2.13-10.43a7.884,7.884,0,0,1,6.282-4.03q3.822-.39,5.462,1.93t1.639,11.45v13.03l42.716-4.46v-6.95Zm18.244,127.62,79.751-8.32v-35.18l-33.757,3.52v-38.65l28.732-2.99V4117l-28.732,3v-33.33l30.7-3.2v-35.18l-76.692,8v175.77Zm92.97-185.47v175.77l73.961-7.72v-35.17l-27.967,2.92V4041.8Zm85.1,166.89,79.751-8.32v-35.17l-33.757,3.52v-38.65l28.732-3v-33.43l-28.732,2.99v-33.33l30.7-3.2v-35.17l-76.692,8v175.76Zm200.361-136.82q0-24.615-4.151-35.83t-17.371-17.65q-13.219-6.435-33.539-4.31a70.243,70.243,0,0,0-26.493,7.81,50.622,50.622,0,0,0-18.025,15.72,44.354,44.354,0,0,0-7.812,19.11q-1.311,9.645-1.311,28.64v51.35q0,25.83,4.261,38.25t17.37,18.33q13.11,5.91,33.321,3.8,19.444-2.025,32.72-12t17.152-21.8q3.876-11.82,3.878-39.11v-6.85l-45.993,4.8v22.09q0,14.475-1.584,18.56c-1.057,2.73-3.3,4.26-6.719,4.62q-5.353.555-6.883-3.19t-1.529-16.56V4070.8q0-13.35,1.529-17.53t7.211-4.77q5.023-.525,6.5,2.63t1.475,16.47v30.55l45.993-4.8v-16.69Zm8.631-60.74v35.17l27.2-2.84v140.59l45.994-4.79V4043.46l27.312-2.85v-35.18Zm111-11.58V4180.1l45.993-4.79V3999.54Zm169.552,55.16q0-27.135-1.311-37.86a37.187,37.187,0,0,0-8.193-19.23,36.412,36.412,0,0,0-18.19-11.95,64.514,64.514,0,0,0-25.509-1.95,70.114,70.114,0,0,0-26.22,7.62A49.2,49.2,0,0,0,762.8,4012a46.384,46.384,0,0,0-7.866,20.96q-1.257,11.145-1.256,37.64v30.07q0,27.15,1.311,37.86a37.187,37.187,0,0,0,8.193,19.23,36.282,36.282,0,0,0,18.19,11.95q11.307,3.435,25.51,1.95a70.126,70.126,0,0,0,26.219-7.62,49.214,49.214,0,0,0,17.862-15.87,46.364,46.364,0,0,0,7.866-20.96q1.254-11.145,1.256-37.64V4059.5Zm-45.993,57.89q0,15.525-1.311,19.78a6.423,6.423,0,0,1-6.009,4.75q-4.588.48-5.844-2.97t-1.257-18.76v-82.07q0-13.575,1.912-16.54a7.139,7.139,0,0,1,5.517-3.35c2.841-.29,4.715.65,5.626,2.84s1.366,7.37,1.366,15.54v80.78Zm127.383-139.23v79.15L915.7,3980.85l-38.456,4.01v175.77l38.456-4.01v-79.91l23.925,77.41,40.312-4.2V3974.15Zm154.363,30.15q0-20.955-4.09-29.27t-16.72-12.74q-12.615-4.44-30.53-2.57-16.395,1.71-27.97,8.18t-16.769,16.35q-5.19,9.885-5.189,30.07,0,14.01,3.659,22.63,3.659,8.64,9.229,13.16t22.73,14.02q17.145,9.39,21.52,13.71,4.26,4.335,4.26,19.86,0,7.05-2.24,10.87a8.482,8.482,0,0,1-6.83,4.3q-4.59.48-6.39-2.16c-1.2-1.75-1.8-5.93-1.8-12.51v-21.39l-42.718,4.46v11.5q0,19.77,4.038,30.09t17.1,15.91q13.05,5.58,31.52,3.66,16.815-1.755,29.5-9.1,12.66-7.35,17.09-16.71t4.43-28.15q0-25.83-7.98-36.62-7.965-10.785-38.68-25.69-10.71-5.175-13-9.39-2.4-4.215-2.39-13.01,0-6.84,2.13-10.43a7.879,7.879,0,0,1,6.28-4.03q3.825-.39,5.46,1.93t1.64,11.45v13.02l42.71-4.45v-6.95Z" transform="translate(-53 -3943)"/>
  </g>
</svg>
