<?xml version="1.0" standalone="no"?>
<!DOCTYPE svg PUBLIC "-//W3C//DTD SVG 20010904//EN"
 "http://www.w3.org/TR/2001/REC-SVG-20010904/DTD/svg10.dtd">
<svg version="1.0" xmlns="http://www.w3.org/2000/svg"
 width="1056.000000pt" height="338.000000pt" viewBox="0 0 1056.000000 338.000000"
 preserveAspectRatio="xMidYMid meet">
<metadata>
Created by potrace 1.16, written by Peter Selinger 2001-2019
</metadata>
<g transform="translate(0.000000,338.000000) scale(0.100000,-0.100000)"
fill="#000000" stroke="none">
<path d="M9430 2908 c-47 -77 -55 -124 -55 -308 0 -162 2 -180 24 -235 38 -93
106 -153 310 -270 210 -120 244 -150 260 -223 13 -64 14 -146 2 -189 -8 -26
-7 -31 5 -26 31 12 45 62 45 158 -1 163 -5 168 -251 310 -253 146 -288 178
-332 305 -20 57 -23 84 -22 215 0 133 3 158 25 223 27 76 22 94 -11 40z"/>
<path d="M8853 2913 l-23 -4 0 -257 c0 -247 1 -259 25 -322 l24 -65 0 328 c1
180 0 326 -1 326 -2 -1 -13 -4 -25 -6z"/>
<path d="M9885 2857 c-17 -13 -16 -14 12 -20 42 -8 53 -41 53 -161 l0 -102
168 17 c92 10 168 18 170 19 6 1 1 30 -5 30 -5 0 -66 -7 -138 -15 -71 -8 -133
-15 -136 -15 -3 0 -8 52 -11 115 -3 70 -10 121 -18 130 -15 19 -70 20 -95 2z"/>
<path d="M8193 2843 c-10 -4 -13 -182 -13 -844 l0 -840 43 6 c64 8 220 25 240
25 9 0 17 7 17 16 0 14 -8 16 -52 11 -29 -4 -83 -9 -120 -13 l-68 -7 0 827 c0
780 -1 826 -17 825 -10 0 -24 -3 -30 -6z"/>
<path d="M8107 2833 c-4 -3 -7 -400 -7 -881 l0 -874 38 6 c30 5 325 36 338 36
2 0 4 9 4 21 0 18 -4 20 -37 15 -143 -21 -264 -28 -278 -16 -13 11 -15 117
-15 856 0 812 -1 844 -18 844 -10 0 -22 -3 -25 -7z"/>
<path d="M9331 2790 c-34 -78 -43 -152 -39 -305 4 -117 8 -150 27 -199 33 -82
102 -149 239 -230 100 -59 118 -66 165 -66 94 0 88 12 -57 94 -218 124 -262
168 -309 309 -16 50 -20 89 -21 197 0 74 5 159 12 189 7 30 11 56 9 58 -3 2
-14 -19 -26 -47z"/>
<path d="M7070 2679 c-39 -43 -76 -115 -96 -185 -14 -49 -17 -128 -21 -489 -6
-516 2 -647 46 -740 70 -151 204 -221 416 -218 116 2 223 27 313 72 81 41 87
55 10 24 -123 -50 -285 -65 -411 -38 -176 37 -283 155 -308 341 -7 51 -9 257
-7 569 4 472 5 492 26 555 12 36 33 82 47 103 31 45 24 48 -15 6z"/>
<path d="M6333 2653 c-10 -4 -13 -182 -13 -845 l0 -840 38 6 c30 5 325 36 338
36 2 0 4 7 4 15 0 18 5 18 -155 0 -71 -8 -140 -15 -152 -15 l-23 0 0 825 c0
853 1 834 -37 818z"/>
<path d="M6270 2526 c0 -91 -3 -125 -12 -128 -10 -4 -14 -166 -16 -757 l-3
-753 38 6 c21 3 108 13 193 21 223 22 230 23 230 47 0 16 -5 19 -27 14 -16 -3
-101 -13 -191 -22 -129 -13 -165 -14 -177 -4 -13 11 -15 120 -15 856 0 556 -3
844 -10 844 -6 0 -10 -48 -10 -124z"/>
<path d="M7503 2605 c-27 -24 -27 -24 -6 -25 54 0 54 0 51 -613 -3 -596 -3
-604 39 -540 17 25 18 68 18 601 0 556 -1 574 -19 588 -28 20 -51 17 -83 -11z"/>
<path d="M6931 2521 c-50 -98 -53 -129 -58 -586 -6 -516 2 -647 46 -740 70
-151 204 -221 416 -218 98 2 234 28 273 53 14 10 13 10 -8 5 -89 -21 -212 -28
-295 -16 -219 33 -349 167 -376 385 -7 55 -9 263 -7 569 4 413 7 489 21 532
20 62 15 69 -12 16z"/>
<path d="M7474 2526 c-3 -13 -4 -264 -2 -558 2 -450 5 -538 18 -552 13 -17 14
-17 21 1 9 22 11 1078 3 1111 -8 29 -32 28 -40 -2z"/>
<path d="M5220 2400 c0 -127 2 -140 18 -139 9 0 68 6 130 13 62 7 115 10 117
7 3 -2 5 -319 5 -703 l0 -698 38 5 c36 5 316 35 327 35 3 0 5 7 5 15 0 18 5
18 -155 0 -71 -8 -140 -15 -152 -15 l-23 0 0 701 0 702 -52 -6 c-29 -4 -90 -9
-135 -13 l-83 -7 0 122 c0 114 -1 121 -20 121 -19 0 -20 -7 -20 -140z"/>
<path d="M5140 2462 c0 -37 7 -99 15 -137 8 -39 15 -87 15 -108 l0 -37 38 5
c78 12 193 21 197 16 3 -2 5 -319 5 -703 l0 -699 33 5 c17 3 102 12 187 21
225 22 230 23 230 47 0 16 -5 19 -27 14 -16 -3 -102 -13 -192 -22 -158 -16
-165 -16 -178 2 -10 14 -13 148 -13 702 l0 684 -42 -6 c-117 -16 -198 -18
-213 -6 -12 10 -15 39 -15 151 0 132 -1 139 -20 139 -18 0 -20 -7 -20 -68z"/>
<path d="M4136 2348 c-89 -118 -99 -203 -93 -790 5 -470 11 -537 58 -629 60
-119 189 -180 384 -180 135 0 236 20 332 65 78 38 102 58 29 26 -87 -39 -167
-54 -296 -54 -103 -1 -138 3 -197 22 -128 40 -206 121 -239 249 -15 59 -18
133 -21 561 -5 540 -1 600 47 697 16 33 27 61 25 63 -1 2 -15 -12 -29 -30z"/>
<path d="M3133 2323 c-10 -4 -13 -183 -13 -849 l0 -844 53 6 c28 3 189 20 357
38 295 30 305 32 308 53 3 20 0 21 -30 17 -53 -7 -601 -64 -620 -64 -17 0 -18
46 -18 825 0 853 1 834 -37 818z"/>
<path d="M3047 2313 c-12 -11 -8 -1293 3 -1293 6 0 10 -67 10 -180 0 -113 -4
-180 -10 -180 -5 0 -10 -23 -10 -51 l0 -51 33 5 c17 3 197 23 400 44 275 28
367 40 367 50 0 17 13 18 -378 -23 -274 -29 -345 -34 -357 -24 -13 11 -15 122
-15 861 0 817 -1 849 -18 849 -10 0 -22 -3 -25 -7z"/>
<path d="M4589 2301 l-24 -20 30 -1 c17 0 36 -4 44 -9 22 -14 30 -91 30 -293
1 -143 4 -188 14 -188 6 0 90 7 185 17 143 14 172 20 172 33 0 15 -14 15 -157
-1 -87 -9 -161 -14 -165 -12 -5 2 -8 102 -8 221 0 248 -4 265 -61 270 -24 2
-43 -3 -60 -17z"/>
<path d="M4558 2228 c-2 -13 3 -34 12 -48 12 -19 16 -69 19 -248 l3 -225 57 6
c389 39 391 40 391 59 0 22 1 22 -168 3 -160 -18 -220 -21 -230 -11 -4 4 -9
114 -12 244 l-5 237 -32 3 c-26 3 -32 -1 -35 -20z"/>
<path d="M2283 2233 c-10 -4 -13 -182 -13 -845 l0 -840 38 6 c20 3 150 17 287
31 325 33 335 34 335 51 0 17 33 19 -295 -16 -154 -16 -288 -30 -297 -30 -17
0 -18 46 -18 825 0 853 1 834 -37 818z"/>
<path d="M4007 2182 c-42 -94 -49 -205 -44 -704 4 -372 7 -455 21 -518 37
-156 104 -229 256 -274 71 -22 250 -23 348 -2 62 13 198 64 190 71 -2 2 -37
-6 -78 -17 -103 -28 -300 -30 -385 -4 -182 55 -260 150 -291 357 -13 86 -15
187 -11 589 2 334 7 496 15 519 19 56 7 46 -21 -17z"/>
<path d="M2197 2223 c-4 -3 -7 -400 -7 -881 l0 -874 38 6 c20 3 172 19 337 36
375 38 365 36 365 60 0 16 -5 19 -27 15 -16 -3 -164 -19 -331 -36 -242 -25
-305 -29 -317 -19 -13 11 -15 120 -15 856 0 812 -1 844 -18 844 -10 0 -22 -3
-25 -7z"/>
<path d="M1353 2133 c-10 -4 -13 -182 -13 -844 l0 -839 53 6 c28 3 189 20 357
38 262 27 305 34 308 48 3 14 -3 16 -30 12 -53 -7 -601 -64 -620 -64 -17 0
-18 46 -18 825 0 853 1 834 -37 818z"/>
<path d="M1267 2123 c-4 -3 -7 -400 -7 -881 l0 -874 33 5 c17 3 197 23 400 44
333 34 367 39 367 55 0 10 -7 18 -17 18 -10 0 -172 -16 -361 -36 -274 -29
-345 -34 -357 -24 -13 11 -15 121 -15 856 0 812 -1 844 -18 844 -10 0 -22 -3
-25 -7z"/>
<path d="M233 1973 c-16 -16 -40 -55 -53 -88 -22 -55 -24 -75 -25 -240 0 -168
2 -184 24 -240 38 -93 106 -153 310 -270 210 -120 244 -150 260 -223 14 -65
14 -146 1 -190 -8 -29 -7 -33 6 -28 9 3 17 6 20 6 2 0 11 14 19 31 22 42 22
202 -1 259 -19 47 -41 64 -234 175 -251 145 -288 178 -330 300 -43 123 -36
353 14 476 13 33 22 59 21 59 -2 0 -16 -12 -32 -27z"/>
<path d="M8630 1900 c0 -101 2 -108 87 -384 47 -155 88 -283 89 -285 4 -4 218
15 287 26 22 3 37 11 37 19 0 8 -3 14 -7 14 -5 0 -64 -7 -133 -14 -69 -8 -126
-14 -126 -13 -1 1 -52 166 -114 367 -62 201 -114 367 -116 369 -2 2 -4 -42 -4
-99z"/>
<path d="M9860 1922 c0 -27 7 -67 16 -88 9 -21 19 -74 22 -116 2 -43 9 -78 13
-78 21 0 33 50 33 130 -1 104 -15 150 -54 179 l-30 22 0 -49z"/>
<path d="M675 1896 c-17 -12 -17 -13 7 -19 37 -10 48 -47 48 -161 l0 -102 168
17 c92 10 168 18 170 19 1 0 2 7 2 16 0 12 -8 14 -42 9 -44 -5 -218 -25 -229
-25 -3 0 -8 52 -11 115 -3 70 -10 121 -18 130 -15 19 -70 20 -95 1z"/>
<path d="M111 1830 c-34 -78 -43 -152 -39 -305 4 -117 8 -150 27 -199 33 -82
102 -149 239 -230 104 -61 116 -66 172 -66 32 0 61 4 64 9 3 5 -55 43 -129 85
-217 124 -261 168 -308 309 -16 50 -20 89 -21 197 0 74 5 159 12 189 7 30 11
56 9 58 -3 2 -14 -19 -26 -47z"/>
<path d="M9383 1834 c-9 -25 5 -223 20 -279 8 -27 21 -63 30 -80 34 -65 123
-126 227 -156 72 -21 269 -15 363 10 77 20 202 75 213 93 4 5 -11 1 -32 -10
-82 -42 -176 -64 -299 -69 -140 -6 -213 8 -310 61 -112 61 -153 145 -162 334
-5 101 -8 112 -25 112 -10 0 -21 -7 -25 -16z"/>
<path d="M9303 1683 c9 -257 46 -339 182 -406 84 -42 132 -51 260 -50 126 1
218 19 319 62 58 25 57 37 -2 17 -67 -24 -199 -39 -291 -33 -214 13 -352 106
-397 268 -9 30 -18 109 -21 177 l-6 122 -25 0 -25 0 6 -157z"/>
<path d="M8631 1567 c-1 -102 2 -117 46 -260 25 -84 48 -154 49 -156 4 -4 329
26 377 35 18 4 27 12 27 24 0 15 -6 17 -37 14 -129 -16 -281 -29 -295 -26 -12
2 -27 36 -53 120 -20 64 -54 171 -75 237 l-38 120 -1 -108z"/>
<path d="M650 951 c0 -28 7 -76 15 -108 8 -31 15 -79 15 -105 0 -36 4 -48 15
-48 21 0 30 43 28 132 -2 94 -16 141 -49 162 l-24 16 0 -49z"/>
<path d="M163 874 c-9 -25 5 -223 20 -279 32 -117 95 -181 223 -224 84 -28
186 -35 290 -21 91 12 230 52 261 76 10 7 -18 2 -62 -12 -109 -35 -291 -44
-385 -20 -90 23 -179 74 -217 125 -45 58 -64 127 -70 259 -6 110 -6 112 -30
112 -13 0 -26 -7 -30 -16z"/>
<path d="M83 723 c9 -257 46 -339 182 -406 84 -42 132 -51 260 -50 126 1 218
19 319 62 58 25 57 37 -2 17 -67 -24 -199 -39 -291 -33 -214 13 -352 106 -397
268 -9 30 -18 109 -21 177 l-6 122 -25 0 -25 0 6 -157z"/>
</g>
</svg>
