<svg xmlns="http://www.w3.org/2000/svg" xmlns:xlink="http://www.w3.org/1999/xlink" width="199.987" height="113.014" viewBox="0 0 384 217">
  <defs>
    <style>
      .cls-1 {
        fill: #333;
      }

      .cls-1, .cls-2 {
        fill-rule: evenodd;
      }

      .cls-2 {
        fill: #ff0;
        filter: url(#filter);
      }
    </style>
    <filter id="filter" x="215" y="515.844" width="371.906" height="206.156" filterUnits="userSpaceOnUse">
      <feOffset result="offset" dx="-5.755" dy="5.557" in="SourceAlpha"/>
      <feGaussianBlur result="blur"/>
      <feFlood result="flood" flood-color="#bfbf00"/>
      <feComposite result="composite" operator="in" in2="blur"/>
      <feBlend result="blend" in="SourceGraphic"/>
    </filter>
  </defs>
  <g id="Монтажная_область_2" data-name="Монтажная область 2">
    <path id="VS" class="cls-1" d="M318.253,637.594l-9.793,42.441-0.918.093-9.793-40.7-33.971-82.432-58.759,5.956,78.04,167.812,50.19-5.087,78.04-183.633L352.529,548Zm93.038,51.129c20.2,19.05,47.741,26.93,73.755,24.293,39.785-4.032,83.854-27.114,85.69-61.3,2.449-43.434-36.112-50.446-74.673-52.246C479.231,598.2,467.908,594.379,467.3,586c0.919-20.445,39.785-25.129,62.432-7.817l35.807-25.967c-22.341-19.825-47.742-23.207-74.062-20.539-39.784,4.032-78.345,26.059-78.345,60.558,0,33.507,31.828,48.151,66.716,49.082,17.75,0.186,37.643,3.878,37.031,13.868-1.531,19.018-49.272,22.865-71,3.722Z" transform="translate(-205 -515)"/>
    <path id="VS-2" data-name="VS" class="cls-2" d="M334.318,622.529l-9.794,42.442-0.918.093-9.793-40.7-33.97-82.433-58.759,5.956L299.123,715.7l50.19-5.088,78.04-183.633-58.759,5.956Zm93.037,51.13c20.2,19.049,47.742,26.93,73.755,24.293,39.785-4.033,83.855-27.114,85.691-61.3,2.448-43.435-36.113-50.447-74.673-52.246-16.833-1.273-28.156-5.089-28.768-13.465,0.918-20.446,39.785-25.13,62.432-7.818L581.6,537.153c-22.341-19.825-47.742-23.207-74.061-20.539-39.785,4.033-78.346,26.06-78.346,60.559,0,33.506,31.828,48.15,66.717,49.081,17.75,0.187,37.642,3.879,37.03,13.869-1.53,19.018-49.272,22.864-71,3.722Z" transform="translate(-205 -515)"/>
  </g>
</svg>
